<svg viewBox="0 0 900 300" width="900" height="300" xmlns="http://www.w3.org/2000/svg" xmlns:xlink="http://www.w3.org/1999/xlink" version="1.1"><rect x="0" y="0" width="900" height="300" fill="#1C1C1C"></rect><path d="M0 84L21.5 87.2C43 90.3 86 96.7 128.8 96.7C171.7 96.7 214.3 90.3 257.2 91.2C300 92 343 100 385.8 105.8C428.7 111.7 471.3 115.3 514.2 114.8C557 114.3 600 109.7 642.8 108.2C685.7 106.7 728.3 108.3 771.2 107.2C814 106 857 102 878.5 100L900 98L900 0L878.5 0C857 0 814 0 771.2 0C728.3 0 685.7 0 642.8 0C600 0 557 0 514.2 0C471.3 0 428.7 0 385.8 0C343 0 300 0 257.2 0C214.3 0 171.7 0 128.8 0C86 0 43 0 21.5 0L0 0Z" fill="#000000"></path><path d="M0 67L21.5 66C43 65 86 63 128.8 65.2C171.7 67.3 214.3 73.7 257.2 74.8C300 76 343 72 385.8 68.5C428.7 65 471.3 62 514.2 60.5C557 59 600 59 642.8 60.5C685.7 62 728.3 65 771.2 66.2C814 67.3 857 66.7 878.5 66.3L900 66L900 0L878.5 0C857 0 814 0 771.2 0C728.3 0 685.7 0 642.8 0C600 0 557 0 514.2 0C471.3 0 428.7 0 385.8 0C343 0 300 0 257.2 0C214.3 0 171.7 0 128.8 0C86 0 43 0 21.5 0L0 0Z" fill="#050505"></path><path d="M0 78L21.5 75.2C43 72.3 86 66.7 128.8 62C171.7 57.3 214.3 53.7 257.2 53.5C300 53.3 343 56.7 385.8 55.8C428.7 55 471.3 50 514.2 49.3C557 48.7 600 52.3 642.8 54.8C685.7 57.3 728.3 58.7 771.2 62.5C814 66.3 857 72.7 878.5 75.8L900 79L900 0L878.5 0C857 0 814 0 771.2 0C728.3 0 685.7 0 642.8 0C600 0 557 0 514.2 0C471.3 0 428.7 0 385.8 0C343 0 300 0 257.2 0C214.3 0 171.7 0 128.8 0C86 0 43 0 21.5 0L0 0Z" fill="#0a0a0a"></path><path d="M0 33L21.5 34C43 35 86 37 128.8 36.8C171.7 36.7 214.3 34.3 257.2 34.2C300 34 343 36 385.8 35.2C428.7 34.3 471.3 30.7 514.2 31.3C557 32 600 37 642.8 39C685.7 41 728.3 40 771.2 41.5C814 43 857 47 878.5 49L900 51L900 0L878.5 0C857 0 814 0 771.2 0C728.3 0 685.7 0 642.8 0C600 0 557 0 514.2 0C471.3 0 428.7 0 385.8 0C343 0 300 0 257.2 0C214.3 0 171.7 0 128.8 0C86 0 43 0 21.5 0L0 0Z" fill="#0e0e0e"></path><path d="M0 30L21.5 27.2C43 24.3 86 18.7 128.8 15.8C171.7 13 214.3 13 257.2 12.8C300 12.7 343 12.3 385.8 15.5C428.7 18.7 471.3 25.3 514.2 25.5C557 25.7 600 19.3 642.8 16.7C685.7 14 728.3 15 771.2 16.5C814 18 857 20 878.5 21L900 22L900 0L878.5 0C857 0 814 0 771.2 0C728.3 0 685.7 0 642.8 0C600 0 557 0 514.2 0C471.3 0 428.7 0 385.8 0C343 0 300 0 257.2 0C214.3 0 171.7 0 128.8 0C86 0 43 0 21.5 0L0 0Z" fill="#121212"></path></svg>
