<svg viewBox="0 0 900 300" width="900" height="300" xmlns="http://www.w3.org/2000/svg" xmlns:xlink="http://www.w3.org/1999/xlink" version="1.1"><rect x="0" y="0" width="900" height="300" fill="#FFFFFF"></rect><path d="M0 118L21.5 122.5C43 127 86 136 128.8 137.8C171.7 139.7 214.3 134.3 257.2 131.2C300 128 343 127 385.8 123.8C428.7 120.7 471.3 115.3 514.2 117.3C557 119.3 600 128.7 642.8 125.3C685.7 122 728.3 106 771.2 104.8C814 103.7 857 117.3 878.5 124.2L900 131L900 0L878.5 0C857 0 814 0 771.2 0C728.3 0 685.7 0 642.8 0C600 0 557 0 514.2 0C471.3 0 428.7 0 385.8 0C343 0 300 0 257.2 0C214.3 0 171.7 0 128.8 0C86 0 43 0 21.5 0L0 0Z" fill="#514178"></path><path d="M0 97L21.5 92.5C43 88 86 79 128.8 78.8C171.7 78.7 214.3 87.3 257.2 88.8C300 90.3 343 84.7 385.8 80.5C428.7 76.3 471.3 73.7 514.2 77.2C557 80.7 600 90.3 642.8 91.2C685.7 92 728.3 84 771.2 81.8C814 79.7 857 83.3 878.5 85.2L900 87L900 0L878.5 0C857 0 814 0 771.2 0C728.3 0 685.7 0 642.8 0C600 0 557 0 514.2 0C471.3 0 428.7 0 385.8 0C343 0 300 0 257.2 0C214.3 0 171.7 0 128.8 0C86 0 43 0 21.5 0L0 0Z" fill="#594a7f"></path><path d="M0 66L21.5 70.8C43 75.7 86 85.3 128.8 86C171.7 86.7 214.3 78.3 257.2 71.7C300 65 343 60 385.8 63.5C428.7 67 471.3 79 514.2 82C557 85 600 79 642.8 74C685.7 69 728.3 65 771.2 63.5C814 62 857 63 878.5 63.5L900 64L900 0L878.5 0C857 0 814 0 771.2 0C728.3 0 685.7 0 642.8 0C600 0 557 0 514.2 0C471.3 0 428.7 0 385.8 0C343 0 300 0 257.2 0C214.3 0 171.7 0 128.8 0C86 0 43 0 21.5 0L0 0Z" fill="#615385"></path><path d="M0 59L21.5 54.8C43 50.7 86 42.3 128.8 41.5C171.7 40.7 214.3 47.3 257.2 53C300 58.7 343 63.3 385.8 64.3C428.7 65.3 471.3 62.7 514.2 58.8C557 55 600 50 642.8 46.3C685.7 42.7 728.3 40.3 771.2 41.2C814 42 857 46 878.5 48L900 50L900 0L878.5 0C857 0 814 0 771.2 0C728.3 0 685.7 0 642.8 0C600 0 557 0 514.2 0C471.3 0 428.7 0 385.8 0C343 0 300 0 257.2 0C214.3 0 171.7 0 128.8 0C86 0 43 0 21.5 0L0 0Z" fill="#695c8b"></path><path d="M0 35L21.5 31.7C43 28.3 86 21.7 128.8 21C171.7 20.3 214.3 25.7 257.2 30.3C300 35 343 39 385.8 37.8C428.7 36.7 471.3 30.3 514.2 28.2C557 26 600 28 642.8 29.8C685.7 31.7 728.3 33.3 771.2 32.7C814 32 857 29 878.5 27.5L900 26L900 0L878.5 0C857 0 814 0 771.2 0C728.3 0 685.7 0 642.8 0C600 0 557 0 514.2 0C471.3 0 428.7 0 385.8 0C343 0 300 0 257.2 0C214.3 0 171.7 0 128.8 0C86 0 43 0 21.5 0L0 0Z" fill="#726592"></path></svg>